<svg xmlns="http://www.w3.org/2000/svg" version="1.0" width="300.000000pt" height="300.000000pt" viewBox="0 0 300.000000 300.000000" preserveAspectRatio="xMidYMid meet">
<metadata fill="#4def0a">
Created by potrace 1.10, written by Peter Selinger 2001-2011
</metadata>
<g transform="translate(0.000000,300.000000) scale(0.100000,-0.100000)" fill="#4def0a" stroke="none">
<path d="M2475 2844 c-338 -33 -579 -167 -759 -423 -155 -220 -227 -440 -225 -686 0 -71 1 -134 1 -140 0 -5 -14 -51 -31 -101 -17 -51 -31 -105 -31 -120 0 -27 1 -27 15 -8 8 10 24 47 36 82 25 76 34 77 14 2 -8 -30 -17 -73 -20 -95 -3 -22 -10 -65 -16 -95 -29 -161 -33 -431 -10 -629 7 -52 9 -96 7 -99 -3 -2 8 -18 25 -35 26 -26 38 -30 90 -32 43 -1 72 4 99 17 59 30 114 34 160 13 22 -10 40 -24 40 -32 0 -8 5 -11 10 -8 6 3 10 -1 10 -9 0 -9 4 -15 8 -14 4 2 20 -9 35 -25 15 -15 24 -27 20 -27 -4 0 -1 -6 7 -13 26 -21 95 -111 92 -120 -1 -5 2 -6 7 -3 5 4 15 0 23 -7 17 -16 82 -47 111 -52 56 -11 108 -29 119 -43 12 -13 -73 -14 -811 -9 -453 3 -825 8 -828 11 -6 6 65 76 78 76 6 0 8 4 5 9 -3 4 7 18 22 30 16 12 44 41 62 66 18 24 37 42 41 39 4 -2 10 5 14 16 4 11 11 17 17 14 7 -5 8 -2 4 5 -5 8 0 14 13 18 11 3 18 9 15 14 -3 5 0 9 6 9 6 0 22 11 35 24 13 14 54 39 91 57 74 37 158 48 231 31 29 -7 49 -6 64 2 23 11 23 12 25 246 1 192 10 343 24 415 6 28 -3 46 -28 59 -23 12 -32 12 -52 1 -13 -7 -30 -11 -37 -8 -7 3 -13 1 -13 -3 0 -5 -21 -10 -46 -11 -26 -1 -51 -8 -56 -15 -7 -9 -8 -6 -5 10 5 22 4 23 -12 8 -21 -19 -51 -21 -51 -3 0 8 -3 9 -8 1 -4 -6 -17 -13 -29 -16 -17 -5 -23 -2 -23 10 0 10 -3 13 -8 7 -9 -13 -35 -18 -27 -5 7 11 -8 14 -18 3 -13 -12 -58 -9 -53 4 3 7 0 15 -6 19 -6 4 -8 3 -5 -3 4 -6 0 -14 -9 -17 -12 -5 -15 -2 -10 10 5 14 4 15 -8 5 -16 -13 -69 -4 -60 10 3 5 10 6 16 3 7 -5 8 -2 4 5 -6 9 -13 8 -28 -5 -16 -16 -21 -16 -28 -4 -6 8 -10 20 -10 25 0 6 -4 4 -9 -4 -7 -12 -13 -12 -24 -3 -7 7 -17 9 -20 5 -4 -3 -7 -1 -7 6 0 7 -4 9 -10 6 -5 -3 -10 -1 -10 6 0 6 -8 9 -20 6 -15 -4 -20 0 -21 16 0 21 -1 21 -9 2 -5 -11 -9 -14 -9 -7 -1 6 -10 12 -22 12 -11 0 -18 4 -15 9 4 5 -4 7 -16 3 -17 -4 -20 -2 -15 13 6 13 3 16 -8 11 -9 -3 -18 1 -21 9 -4 8 -10 12 -15 9 -5 -3 -9 0 -9 5 0 6 -7 11 -15 11 -8 0 -15 5 -15 10 0 6 -7 10 -15 10 -21 0 -58 39 -52 54 3 7 -1 13 -9 13 -7 0 -11 -5 -8 -11 3 -6 -2 -2 -10 8 -9 11 -16 24 -16 30 0 5 -3 6 -7 3 -7 -8 -33 11 -33 25 0 5 4 7 9 4 11 -7 8 21 -4 31 -4 4 -5 3 -1 -4 3 -6 2 -14 -3 -18 -12 -7 -63 64 -55 77 3 4 -3 5 -12 1 -13 -5 -16 -3 -11 10 3 9 2 16 -3 14 -11 -2 -90 159 -90 186 0 9 -4 17 -8 17 -5 0 -17 37 -26 83 -10 45 -21 89 -26 98 -4 9 -4 22 0 29 5 8 4 22 -1 32 -6 11 -9 36 -7 56 l3 37 139 3 c76 2 146 0 155 -4 9 -3 39 -8 66 -9 43 -3 90 -8 119 -13 4 -1 5 -10 2 -19 -6 -17 -5 -17 7 -1 8 10 16 16 19 13 2 -2 13 -6 24 -8 50 -9 104 -29 100 -36 -3 -5 5 -7 17 -6 28 3 136 -40 157 -62 14 -14 13 -15 -5 -9 -15 5 -17 4 -9 -4 9 -9 18 -9 35 1 21 11 23 11 11 -3 -10 -13 -10 -18 -1 -24 7 -4 9 -3 6 3 -4 6 0 14 9 17 13 5 15 2 11 -14 -4 -17 -3 -19 9 -9 11 9 14 8 14 -5 0 -9 8 -16 19 -16 22 0 44 -23 33 -35 -4 -5 -1 -5 6 -1 8 5 29 -9 57 -38 39 -40 42 -47 27 -56 -14 -8 -12 -9 11 -6 18 3 27 0 27 -9 0 -7 6 -15 13 -18 9 -3 8 -8 -3 -23 -14 -17 -13 -18 1 -6 19 15 30 4 46 -43 6 -17 16 -29 24 -27 8 2 11 0 6 -4 -4 -4 -1 -17 7 -29 7 -11 13 -39 11 -62 -2 -34 0 -40 14 -35 14 5 14 4 2 -11 -8 -10 -11 -20 -7 -24 3 -3 6 -1 6 5 0 7 5 12 11 12 6 0 8 -7 5 -16 -3 -8 -2 -13 3 -10 4 3 14 -27 20 -67 22 -125 26 -140 40 -145 30 -10 -4 184 -55 308 -80 200 -217 346 -414 445 -186 93 -345 126 -629 131 l-204 4 7 -84 c25 -330 170 -605 403 -767 253 -175 592 -239 833 -159 30 10 56 18 56 17 1 -1 -5 -36 -13 -77 -12 -56 -16 -144 -17 -346 l-1 -271 -35 15 c-20 8 -67 14 -108 14 -67 0 -82 -4 -159 -42 -78 -38 -101 -58 -252 -210 -91 -91 -188 -182 -216 -201 l-50 -34 30 -2 c17 -2 440 -4 942 -5 l912 -3 -42 43 c-42 42 -66 53 -191 81 -67 16 -125 59 -184 138 -132 177 -211 213 -345 157 -49 -21 -72 -25 -110 -21 -26 4 -51 8 -56 11 -17 11 -34 304 -28 502 5 190 17 284 58 449 23 91 24 92 82 84 137 -20 342 2 482 50 323 112 546 339 681 692 32 85 81 251 90 308 3 14 9 49 14 76 6 28 14 73 18 101 l9 52 -71 11 c-75 13 -294 22 -361 15z m200 -29 c22 -3 53 -7 68 -10 19 -3 26 -1 21 7 -5 7 -3 8 6 3 6 -4 29 -10 49 -12 45 -6 53 -18 46 -63 -14 -83 -17 -98 -31 -155 -8 -33 -17 -69 -19 -80 -9 -44 -44 -152 -59 -180 -9 -16 -16 -39 -16 -49 0 -23 -88 -200 -113 -227 -10 -10 -15 -19 -12 -19 3 0 1 -6 -4 -12 -48 -59 -59 -76 -53 -82 4 -4 2 -6 -3 -5 -15 5 -54 -32 -48 -46 2 -7 0 -16 -6 -20 -6 -3 -9 0 -5 8 3 8 1 17 -3 20 -5 3 -10 -3 -10 -14 -2 -23 -33 -58 -33 -37 0 8 6 20 13 28 10 12 9 12 -4 2 -9 -7 -19 -26 -23 -43 -3 -17 -9 -28 -14 -25 -5 3 -14 -4 -22 -14 -8 -10 -17 -17 -22 -14 -4 3 -8 0 -8 -5 0 -6 -5 -11 -10 -11 -6 0 -20 -9 -32 -20 -12 -10 -25 -17 -30 -14 -4 3 -8 -2 -8 -11 0 -11 -5 -15 -16 -11 -8 3 -12 2 -9 -4 6 -10 -7 -14 -34 -11 -7 2 -11 -1 -8 -6 3 -5 -6 -13 -19 -20 -13 -6 -24 -7 -24 -2 0 5 -9 1 -20 -9 -12 -9 -22 -15 -24 -12 -2 3 -9 0 -17 -6 -12 -10 -52 -24 -84 -30 -5 -1 -12 -3 -15 -4 -3 -1 -16 -3 -29 -6 -14 -2 -29 -8 -35 -13 -6 -4 -28 -7 -49 -5 -20 1 -35 -1 -33 -4 2 -4 -11 -7 -30 -7 -24 -1 -34 4 -34 15 -1 12 -3 12 -11 -2 -5 -10 -16 -18 -24 -18 -8 0 -19 8 -24 18 -9 15 -10 15 -11 1 0 -14 -7 -15 -40 -9 -22 4 -41 3 -42 -2 -2 -5 -15 -5 -31 1 -20 8 -34 8 -49 0 -16 -9 -19 -8 -13 3 4 7 -6 -2 -24 -20 -20 -21 -31 -28 -31 -18 0 8 8 20 18 25 9 6 13 11 7 11 -6 0 -10 30 -10 70 0 38 -3 70 -6 70 -3 0 -5 12 -3 28 2 15 6 56 10 92 7 87 9 98 24 149 11 35 15 40 21 25 7 -16 8 -17 8 -2 1 9 -3 19 -8 22 -19 12 17 109 38 101 11 -4 11 -3 2 9 -7 8 -10 20 -6 27 6 8 9 8 15 -1 5 -8 9 -7 13 5 4 9 3 13 -2 10 -17 -10 -21 13 -6 29 9 9 23 36 32 61 8 25 23 51 34 59 10 7 16 16 12 19 -3 4 -1 7 5 7 7 0 12 7 12 15 0 8 9 23 21 34 13 11 18 24 14 32 -5 8 -4 10 3 5 7 -4 12 -2 12 4 0 6 4 8 10 5 6 -3 7 1 4 9 -3 9 -1 16 4 16 6 0 13 -8 16 -17 2 -10 3 -4 1 14 -2 26 0 31 15 28 21 -4 73 42 64 56 -8 14 54 72 67 63 7 -4 9 -3 6 3 -4 6 0 16 7 22 11 10 17 8 25 -6 8 -14 11 -15 12 -3 1 8 1 21 0 28 -1 6 3 12 8 12 6 0 32 14 58 30 48 31 80 39 67 18 -4 -7 -3 -8 5 -4 6 4 9 11 6 16 -7 11 130 54 240 75 17 3 62 6 102 7 40 0 71 4 69 7 -4 6 50 4 119 -4z m-816 -291 c-13 -14 -25 -21 -27 -15 -5 14 20 40 37 41 10 0 7 -8 -10 -26z" fill="#4def0a"/>
<path d="M2318 2512 c-93 -67 -158 -122 -158 -133 0 -5 28 14 63 43 34 29 86 70 115 91 44 33 61 48 50 47 -2 -1 -33 -22 -70 -48z" fill="#4def0a"/>
<path d="M634 2030 c55 -27 102 -48 104 -45 5 5 -47 32 -128 67 -96 42 -87 33 24 -22z" fill="#4def0a"/>
<path d="M760 1974 c0 -10 35 -35 47 -33 3 0 10 -6 15 -15 5 -9 14 -16 19 -16 6 0 4 7 -5 15 -8 9 -17 14 -20 13 -2 -2 -16 8 -30 21 -14 14 -26 20 -26 15z" fill="#4def0a"/>
</g>
</svg>